<?xml version="1.0" encoding="UTF-8"?>
<svg version="1.1" xmlns="http://www.w3.org/2000/svg" width="32" height="32">
<path d="M0 0 C1.32 0 2.64 0 4 0 C3.67 2.31 3.34 4.62 3 7 C3.5775 6.484375 4.155 5.96875 4.75 5.4375 C7 4 7 4 9.125 4.0625 C11 5 11 5 12.25 6.625 C13.64911662 11.05553598 13.4105233 15.59211469 12 20 C10.35 19.67 8.7 19.34 7 19 C7 16.36 7 13.72 7 11 C4.03 15.455 4.03 15.455 1 20 C-0.65 19.67 -2.3 19.34 -4 19 C-4 18.34 -4 17.68 -4 17 C-4.70125 17.495 -5.4025 17.99 -6.125 18.5 C-9.41082318 20.21434253 -11.34453935 20.40616229 -15 20 C-17 18 -17 18 -17.3125 15.125 C-16.96477302 11.6477302 -16.05887691 10.68549163 -14 8 C-14.21717352 5.79199472 -14.21717352 5.79199472 -15 4 C-12.23556715 2.92989696 -10.46148633 2.83716787 -7.6640625 3.82421875 C-5.41525773 4.83511679 -3.19840363 5.88403476 -1 7 C-0.67 4.69 -0.34 2.38 0 0 Z M-8 8 C-10.58119071 9.73122465 -10.58119071 9.73122465 -13 12 C-13 13.32 -13 14.64 -13 16 C-9.99615946 15.3045656 -9.99615946 15.3045656 -7 14 C-5.8509288 12.0745356 -5.8509288 12.0745356 -6 10 C-6.66 9.34 -7.32 8.68 -8 8 Z " fill="#0797E0" transform="translate(18,5)"/>
<path d="M0 0 C5.75193798 3.25581395 5.75193798 3.25581395 7 7 C6.87890625 9.26171875 6.87890625 9.26171875 6.5625 11.6875 C6.46066406 12.49574219 6.35882812 13.30398437 6.25390625 14.13671875 C6.17011719 14.75160156 6.08632813 15.36648437 6 16 C5.01 15.67 4.02 15.34 3 15 C3 14.34 3 13.68 3 13 C2.29875 13.495 1.5975 13.99 0.875 14.5 C-2.41082318 16.21434253 -4.34453935 16.40616229 -8 16 C-10 14 -10 14 -10.3125 11.125 C-9.96477302 7.6477302 -9.05887691 6.68549163 -7 4 C-7.21717352 1.79199472 -7.21717352 1.79199472 -8 0 C-5.01770098 -1.49114951 -3.20107966 -0.80026992 0 0 Z M-1 4 C-3.58119071 5.73122465 -3.58119071 5.73122465 -6 8 C-6 9.32 -6 10.64 -6 12 C-2.99615946 11.3045656 -2.99615946 11.3045656 0 10 C1.1490712 8.0745356 1.1490712 8.0745356 1 6 C0.34 5.34 -0.32 4.68 -1 4 Z " fill="#0795DB" transform="translate(11,9)"/>
<path d="M0 0 C5.75193798 3.25581395 5.75193798 3.25581395 7 7 C6.87890625 9.26171875 6.87890625 9.26171875 6.5625 11.6875 C6.46066406 12.49574219 6.35882813 13.30398437 6.25390625 14.13671875 C6.17011719 14.75160156 6.08632813 15.36648437 6 16 C5.01 15.67 4.02 15.34 3 15 C2.0859375 13.00390625 2.0859375 13.00390625 1.375 10.5625 C0.38168143 7.20490628 0.38168143 7.20490628 -1 4 C-2.98 4 -4.96 4 -7 4 C-7.33 2.68 -7.66 1.36 -8 0 C-5.01770098 -1.49114951 -3.20107966 -0.80026992 0 0 Z " fill="#323B44" transform="translate(11,9)"/>
</svg>
